<?xml version="1.0" encoding="iso-8859-1"?>
<!-- Generator: Adobe Illustrator 19.0.0, SVG Export Plug-In . SVG Version: 6.00 Build 0)  -->
<svg version="1.1" id="Capa_1" xmlns="http://www.w3.org/2000/svg" xmlns:xlink="http://www.w3.org/1999/xlink" x="0px" y="0px"
	 viewBox="0 0 512 512" style="enable-background:new 0 0 512 512;" xml:space="preserve">
<path style="fill:#EEEEEE;" d="M361.246,301.259c15.828,12.321,35.73,19.66,57.345,19.66c51.589,0,83.409-31.808,83.409-83.377
	s-29.82-93.374-81.409-93.374H90.408C38.82,144.169,10,185.973,10,237.543c0,51.569,31.82,83.377,83.408,83.377
	c21.616,0,41.518-7.339,57.346-19.66l-0.35,156.739h211.191L361.246,301.259z"/>
<g>
	<path style="fill:#CBC2BA;" d="M186.843,53.999h-63.154v47.779h131.063C254.751,101.778,252.034,53.999,186.843,53.999z"/>
	<path style="fill:#CBC2BA;" d="M323.097,53.999h63.154v47.779H255.188C255.188,101.778,257.905,53.999,323.097,53.999z"/>
</g>
<g>
	<rect x="92.34" y="101.779" style="fill:#F6931E;" width="163.66" height="42.01"/>
	<rect x="256" y="101.779" style="fill:#F6931E;" width="163.66" height="42.01"/>
</g>
<g>
	<path style="fill:#231F20;" d="M429.659,134.588v-32.81c0-5.523-4.477-10-10-10h-23.408V53.999c0-5.523-4.477-10-10-10h-63.154
		c-37.845,0-63.263,15.167-68.127,30.347c-5.97-15.847-30.283-30.347-68.127-30.347h-63.154c-5.523,0-10,4.477-10,10v37.779H92.341
		c-5.523,0-10,4.477-10,10v32.709c-24.096,1.905-44.464,12.434-59.26,30.745C8.197,183.652,0,209.332,0,237.543
		c0,28.013,8.745,51.562,25.289,68.099c16.543,16.537,40.098,25.278,68.119,25.278c16.73,0,32.793-3.9,47.305-11.399l-0.309,138.457
		c-0.006,2.656,1.045,5.206,2.921,7.085c1.876,1.88,4.423,2.937,7.079,2.937h211.191c2.656,0,5.203-1.057,7.079-2.937
		s2.927-4.429,2.921-7.085l-0.309-138.457c14.511,7.498,30.575,11.399,47.304,11.399c28.022,0,51.577-8.741,68.12-25.278
		c16.545-16.538,25.29-40.086,25.29-68.099C512,180.159,478.585,139.098,429.659,134.588z M409.659,133.791h-143.66v-22.013h143.66
		V133.791z M323.097,63.999h53.154v27.779H268.155C269.247,89.28,281.666,63.999,323.097,63.999z M133.688,63.999h53.154
		c42.324,0,53.752,25.058,54.941,27.779H133.688V63.999z M102.341,111.778h143.658v22.013H102.341V111.778z M418.591,310.919
		c-18.747,0-36.452-6.069-51.202-17.551c-3.017-2.348-7.11-2.772-10.544-1.088c-3.434,1.683-5.607,5.177-5.598,9.001l0.326,146.718
		H328.13v-172.16c0-5.52-4.48-10-10-10c-5.51,0-10,4.48-10,10v172.16h-22v-172.16c0-5.52-4.48-10-10-10c-5.51,0-10,4.48-10,10
		v172.16h-22v-172.16c0-5.52-4.48-10-10-10c-5.51,0-10,4.48-10,10v172.16h-22v-172.16c0-5.52-4.48-10-10-10c-5.51,0-10,4.48-10,10
		v172.16h-21.703l0.327-146.717c0.009-3.824-2.164-7.318-5.598-9.001c-3.435-1.684-7.528-1.261-10.544,1.088
		c-14.75,11.482-32.456,17.551-51.203,17.551C47.442,310.919,20,283.489,20,237.543c0-38.461,18.439-83.374,70.408-83.374h330.183
		c49.329,0,71.409,41.874,71.409,83.374C492,283.489,464.557,310.919,418.591,310.919z"/>
	<path style="fill:#231F20;" d="M397.616,176.311H110.343c-19.733,0-36.542,5.296-48.609,15.317
		c-11.865,9.852-18.4,23.739-18.4,39.102c0,15.85,4.781,28.133,14.211,36.509c9.967,8.852,24.662,13.155,44.924,13.155
		c10.391,0,22.776-4.743,32.323-12.378c11.824-9.457,18.335-22.257,18.335-36.042c0-5.523-4.477-10-10-10s-10,4.477-10,10
		c0,17.63-19.85,28.42-30.658,28.42c-32.48,0-39.136-11.858-39.136-29.664c0-20.909,18.452-34.419,47.009-34.419h287.273
		c28.542,0,47.718,13.832,47.718,34.419c0,17.806-6.656,29.664-39.138,29.664c-1.252,0-30.656-0.323-30.656-28.42
		c0-5.523-4.477-10-10-10s-10,4.477-10,10c0,35.525,30.294,48.42,50.656,48.42c20.263,0,34.958-4.303,44.925-13.155
		c9.431-8.375,14.212-20.659,14.212-36.509C465.334,198.689,437.487,176.311,397.616,176.311z"/>
	<path style="fill:#231F20;" d="M318.13,225.839c-5.51,0-10,4.48-10,10c0,5.51,4.49,10,10,10c5.52,0,10-4.49,10-10
		C328.13,230.319,323.65,225.839,318.13,225.839z"/>
	<path style="fill:#231F20;" d="M276.13,225.839c-5.51,0-10,4.48-10,10c0,5.51,4.49,10,10,10c5.52,0,10-4.49,10-10
		C286.13,230.319,281.65,225.839,276.13,225.839z"/>
	<path style="fill:#231F20;" d="M234.13,225.839c-5.51,0-10,4.48-10,10c0,5.51,4.49,10,10,10c5.52,0,10-4.49,10-10
		C244.13,230.319,239.65,225.839,234.13,225.839z"/>
	<path style="fill:#231F20;" d="M192.13,225.839c-5.51,0-10,4.48-10,10c0,5.51,4.49,10,10,10c5.52,0,10-4.49,10-10
		C202.13,230.319,197.65,225.839,192.13,225.839z"/>
</g>
<g>
</g>
<g>
</g>
<g>
</g>
<g>
</g>
<g>
</g>
<g>
</g>
<g>
</g>
<g>
</g>
<g>
</g>
<g>
</g>
<g>
</g>
<g>
</g>
<g>
</g>
<g>
</g>
<g>
</g>
</svg>
